<svg display="block" role="presentation" viewBox="0 0 36 40" xmlns="http://www.w3.org/2000/svg"><defs><linearGradient id="g1" x1="0.2895" x2="0.7105" y1="0" y2="1"><stop offset="0" stop-color="rgb(61,3,12)"/><stop offset="1" stop-color="rgb(186,20,26)"/></linearGradient><linearGradient id="g2" x1="0.1215" x2="0.8785" y1="1" y2="0"><stop offset="0" stop-color="rgb(20,21,23)"/><stop offset="1" stop-color="rgb(167,168,168)"/></linearGradient><linearGradient id="g3" x1="0" x2="1" y1="0.4466" y2="0.5534"><stop offset="0" stop-color="rgb(0,50,132)"/><stop offset="1" stop-color="rgb(135,201,225)"/></linearGradient><linearGradient id="g4" x1="0.2752" x2="0.7248" y1="0" y2="1"><stop offset="0" stop-color="rgb(0,82,109)"/><stop offset="1" stop-color="rgb(153,212,192)"/></linearGradient><linearGradient id="g5" x1="0" x2="1" y1="0.9546" y2="0.0454"><stop offset="0" stop-color="rgb(138,144,196)"/><stop offset="1" stop-color="rgb(41,13,77)"/></linearGradient><linearGradient id="g6" x1="0" x2="1" y1="0.4502" y2="0.5498"><stop offset="0" stop-color="rgb(252,196,114)"/><stop offset="1" stop-color="rgb(186,20,26)"/></linearGradient></defs><g><path d="M 1.242 5.387 C 3.55 4.705 5.765 3.023 7.066 1.016 C 7.277 0.685 7.471 0.347 7.627 0 C 8.179 0.94 8.469 2.009 8.469 3.099 L 8.469 17.098 C 8.469 18.279 8.129 19.435 7.519 20.401 C 7.131 20.321 6.752 20.239 6.375 20.151 C 3.924 19.574 1.938 18.656 0 17.259 L 0.194 17.147 C 0.842 16.774 1.242 16.082 1.242 15.334 Z" fill="url(#g1)" transform="translate(27.531 9.9)"/><path d="M 10.598 0 C 12.313 1.726 14.892 2.878 17.31 3.047 C 17.669 3.07 18.025 3.077 18.374 3.054 C 17.85 3.85 17.147 4.512 16.323 4.989 L 4.456 11.841 C 3.437 12.43 2.292 12.707 1.155 12.663 C 1.158 12.651 1.157 12.638 1.153 12.626 C 1.024 12.234 0.899 11.849 0.782 11.463 C 0.066 9.087 -0.138 6.936 0.087 4.599 L 0.308 4.727 C 0.957 5.101 1.756 5.101 2.404 4.727 Z" fill="url(#g2)" transform="translate(16.599 27.333)"/><path d="M 6.387 0 C 4.213 1.024 2.44 2.324 0.743 4.2 C 0.493 4.477 0.248 4.759 0 5.047 C 0.539 6.019 1.332 6.825 2.294 7.38 L 14.161 14.233 C 15.016 14.726 15.963 15.027 16.917 15.076 C 16.698 14.76 16.507 14.418 16.331 14.063 C 15.282 11.914 14.983 9.15 15.587 6.821 L 7.435 2.119 C 6.787 1.745 6.388 1.053 6.387 0.305 Z" fill="url(#g3)" transform="translate(0.767 24.899)"/><path d="M 0.713 0 C 1.869 2.438 4.482 4.478 7.159 5.242 L 7.159 14.433 C 4.804 15.092 2.531 16.803 1.208 18.849 C 1.024 19.138 0.853 19.431 0.709 19.732 C 0.243 18.85 0 17.867 0 16.869 L 0 2.87 C 0 1.869 0.245 0.884 0.713 0 Z" fill="url(#g4)" transform="translate(0 10.1)"/><path d="M 6.401 14.873 L 6.401 14.958 C 3.796 13.765 1.859 12.232 0.006 10.034 C 0.005 10.033 0.004 10.032 0.003 10.031 C 0.003 10.03 0.002 10.03 0.002 10.029 L 0.001 10.028 L 0 10.028 C 0.54 9.046 1.338 8.23 2.309 7.67 L 14.175 0.817 C 15.048 0.314 16.031 0.033 17.039 0 C 15.51 2.251 15.061 5.563 15.768 8.261 L 7.449 13.06 C 6.8 13.433 6.401 14.125 6.401 14.873 Z" fill="url(#g5)" transform="translate(0.767 0)"/><path d="M 0.16 8.039 L 0.092 8.079 C -0.188 5.183 0.172 2.719 1.163 0.001 C 2.266 -0.014 3.353 0.269 4.308 0.821 L 16.175 7.673 C 17.072 8.192 17.823 8.929 18.358 9.816 C 18.35 9.82 18.342 9.826 18.337 9.833 C 18.068 10.146 17.802 10.451 17.532 10.751 C 15.866 12.587 14.13 13.87 12.014 14.882 L 12.014 14.877 C 12.014 14.128 11.614 13.437 10.966 13.063 L 2.256 8.039 C 1.608 7.665 0.809 7.665 0.16 8.039 Z" fill="url(#g6)" transform="translate(16.765 0)"/></g></svg>
